<svg width="18" height="13" viewBox="0 0 18 13" fill="none" xmlns="http://www.w3.org/2000/svg">
<path d="M15.12 5.64687C15.2353 5.33638 15.3 4.99687 15.3 4.64286C15.3 3.10491 14.0906 1.85714 12.6 1.85714C12.0459 1.85714 11.5284 2.03125 11.1009 2.32723C10.3219 0.934375 8.86781 0 7.2 0C4.71375 0 2.7 2.07768 2.7 4.64286C2.7 4.72121 2.70281 4.79955 2.70562 4.8779C1.13062 5.44955 0 6.99911 0 8.82143C0 11.1283 1.81406 13 4.05 13H14.4C16.3884 13 18 11.3373 18 9.28571C18 7.48951 16.7625 5.98929 15.12 5.64687Z" fill="#687585"/>
</svg>
