<svg width="50" height="10" viewBox="0 0 50 10" fill="none" xmlns="http://www.w3.org/2000/svg">
<path d="M1.68095 9.87374C0.939304 9.65511 0.190865 8.75076 0.0645803 7.92067C0.00685063 7.54119 -0.0165872 5.98797 0.0124969 4.46906C0.0710894 1.40904 0.13331 1.21332 1.29364 0.439241C1.81521 0.0912911 1.97242 0.0775639 5.43555 0.0775639C8.41713 0.0775639 9.13164 0.122373 9.59629 0.3385C10.2186 0.627945 10.7271 1.23737 10.8956 1.89575L11.0063 2.32799H6.88878H2.77123V4.98029V7.63258H6.871C10.7523 7.63258 10.9708 7.64845 10.9708 7.9303C10.9708 8.32554 10.3461 9.20851 9.77026 9.62711C9.3379 9.94144 9.07576 9.96543 5.75249 9.99467C3.79711 10.0119 1.96492 9.95745 1.68095 9.87374ZM14.5161 9.88405C13.758 9.65099 12.7747 8.56578 12.7747 7.96206C12.7747 7.8485 14.1955 7.79333 17.1204 7.79333H21.4662V6.90923V6.02514H17.8641H14.262L13.7025 5.54364C12.9132 4.86428 12.7295 4.31858 12.7981 2.85582C12.8653 1.41991 13.2117 0.774546 14.1491 0.338504C14.9065 -0.0137587 21.4998 -0.0473074 22.3401 0.296826C23.0199 0.575254 23.7621 1.43207 23.7621 1.93847V2.328H19.4983H15.2345V3.13173V3.93545H18.7925C22.3475 3.93545 22.351 3.93573 22.9593 4.34902C23.778 4.90509 24.011 5.51989 23.9934 7.07643C23.9771 8.50863 23.7673 8.98511 22.8795 9.60587C22.3912 9.94725 22.2016 9.96487 18.6783 9.99632C16.649 10.0144 14.776 9.96391 14.5161 9.88405ZM27.1239 9.58394C25.9754 8.88858 25.9813 8.91041 25.9229 5.16474C25.8636 1.35865 25.9391 1.01744 26.9812 0.386142C27.4806 0.0835851 27.8163 0.0570508 31.504 0.0285723C35.3398 -0.0010488 35.5087 0.0107787 36.0614 0.348077C36.61 0.682859 37.2093 1.45677 37.2093 1.83038C37.2093 1.95386 35.8368 2.00651 32.6176 2.00651H28.0258V4.88813C28.0258 7.43699 28.057 7.77576 28.2962 7.82173C28.4449 7.85032 29.9946 7.85266 31.74 7.82693L34.9134 7.78015V6.82227V5.86438H33.1863C31.1633 5.86438 30.5247 5.66174 30.0187 4.8592C29.8246 4.55129 29.6657 4.25365 29.6657 4.19777C29.6657 4.1419 31.363 4.09619 33.4375 4.09619H37.2093L37.2087 6.14569C37.2082 8.44752 37.0301 8.95987 36.0219 9.56239C35.5278 9.85769 35.1903 9.88181 31.5517 9.88181C28.0062 9.88181 27.5671 9.85227 27.1239 9.58393L27.1239 9.58394ZM40.1415 9.49153C39.1864 8.85533 39.0952 8.44587 39.0952 4.7909C39.0952 1.76558 39.118 1.51751 39.4333 1.1037C40.2694 0.00666688 40.2845 0.00335158 44.4739 0.000125219C48.7641 -0.00317098 48.9919 0.0500072 49.6572 1.21019C49.9738 1.7624 50.0006 2.05847 50 5.00218C49.9994 8.56719 49.9111 8.90625 48.8132 9.5624C48.3208 9.85665 47.9813 9.88186 44.504 9.88242C40.774 9.88297 40.7223 9.87836 40.1415 9.49153ZM47.709 7.63258C47.7113 7.45577 47.7153 6.09948 47.7176 4.61862L47.7218 1.92614H44.5564H41.3911L41.3465 4.9401L41.3018 7.95408H44.5033C47.594 7.95408 47.7049 7.94296 47.709 7.63258H47.709Z" fill="white"/>
</svg>
