<svg width="24" height="19" viewBox="0 0 24 19" fill="none" xmlns="http://www.w3.org/2000/svg">
<path fill-rule="evenodd" clip-rule="evenodd" d="M0 4.56458V14.2009C0 16.4832 1.52153 18.5119 4.0574 18.5119H19.2727C21.3014 18.5119 23.3301 16.9904 23.3301 14.9617V7.35404L22.8229 6.84687L23.3301 6.0861V4.0574C23.3301 2.28229 22.0621 0 19.7798 0H3.80382C1.77511 0 0 1.77511 0 4.56458ZM7.10015 5.57878V12.9328H16.7365V10.9041L9.12885 8.36825H21.5546V14.4543C21.6392 15.1306 21.3518 16.4831 19.5259 16.4831H4.56427C3.71898 16.3985 2.02839 15.773 2.02839 13.9472V3.80367C2.02839 3.12743 2.58629 1.77497 4.81786 1.77497H18.5116C19.3569 1.77497 21.0982 2.28214 21.3011 4.31084V5.57878H7.10015Z" fill="#687585"/>
</svg>
