<svg width="17" height="18" viewBox="0 0 17 18" fill="none" xmlns="http://www.w3.org/2000/svg">
<path d="M16.907 7.23587C16.907 2.89435 12.1708 0 9.46436 0V2.89435C12.1708 3.47322 13.2984 5.5475 13.524 6.51229V9.40664H12.8474L11.4942 10.1302V15.9189L12.1708 17.3661H14.2006L16.907 14.4717V7.23587Z" fill="#687585"/>
<path d="M0.781265 7.23587C0.781265 2.89435 5.51747 0 8.22388 0V2.89435C5.51747 3.47322 4.3898 5.5475 4.16427 6.51229V9.40664H4.84087L6.19407 10.1302V15.9189L5.51747 17.3661H3.48767L0.781265 14.4717V7.23587Z" fill="#687585"/>
<path d="M8.22388 0H9.46431V2.88304H8.22388V0Z" fill="#687585"/>
</svg>
