<svg width="21" height="18" viewBox="0 0 21 18" fill="none" xmlns="http://www.w3.org/2000/svg">
<path d="M20.7105 3.39258L14.3227 0C13.6633 0.977344 12.2033 1.65938 10.5006 1.65938C8.79784 1.65938 7.33788 0.977344 6.67844 0L0.290688 3.39258C0.0315035 3.5332 -0.0734826 3.8707 0.0544692 4.14844L1.9311 8.17383C2.06233 8.45156 2.37729 8.56406 2.63647 8.42695L4.49341 7.45312C4.84118 7.27031 5.248 7.54102 5.248 7.95937V16.875C5.248 17.4973 5.71716 18 6.29786 18H14.6967C15.2775 18 15.7466 17.4973 15.7466 16.875V7.95586C15.7466 7.54102 16.1534 7.2668 16.5012 7.44961L18.3581 8.42344C18.6173 8.56406 18.9323 8.45156 19.0635 8.17031L20.9434 4.14844C21.0747 3.8707 20.9697 3.52969 20.7105 3.39258Z" fill="#687585"/>
</svg>
